HIERARCHY
ROOT Wrist
{
	OFFSET 0.00 0.00 0.00
	CHANNELS 6 Xposition Yposition Zposition Xrotation Yrotation Zrotation
	Joint Little_Metacarpal
	{
		OFFSET -0.028707 0.002084 -0.027748
		CHANNELS 3 Xrotation Yrotation Zrotation
		Joint Little_Proximal
		{
			OFFSET -0.033639 -0.008508 -0.095537
			CHANNELS 3 Xrotation Yrotation Zrotation
			Joint Little_Intermediate
			{
				OFFSET -0.014886 -0.012114 -0.055495
				CHANNELS 3 Xrotation Yrotation Zrotation
				Joint Little_Distal
				{
					OFFSET -0.006141 -0.007774 -0.023711
					CHANNELS 3 Xrotation Yrotation Zrotation
					Joint Little_Tip
					{
						OFFSET -0.00227 -0.009647 -0.019238
						CHANNELS 3 Xrotation Yrotation Zrotation
						End Site
						{
							OFFSET 0.001 0.001 0.001
						}
					}
				}
			}
		}
	}
	Joint Ring_Metacarpal
	{
		OFFSET -0.012366 0.001725 -0.029352
		CHANNELS 3 Xrotation Yrotation Zrotation
		Joint Ring_Proximal
		{
			OFFSET -0.018549 0.010541 -0.117421
			CHANNELS 3 Xrotation Yrotation Zrotation
			Joint Ring_Intermediate
			{
				OFFSET -0.014284 -0.016597 -0.060738
				CHANNELS 3 Xrotation Yrotation Zrotation
				Joint Ring_Distal
				{
					OFFSET -0.005423 -0.013867 -0.033029
					CHANNELS 3 Xrotation Yrotation Zrotation
					Joint Ring_Tip
					{
						OFFSET -0.002835 -0.011872 -0.02616
						CHANNELS 3 Xrotation Yrotation Zrotation
						End Site
						{
							OFFSET 0.001 0.001 0.001
						}
					}
				}
			}
		}
	}
	Joint Middle_Metacarpal
	{
		OFFSET 0.001855 0.002895 -0.025812
		CHANNELS 3 Xrotation Yrotation Zrotation
		Joint Palm
		{
			OFFSET 0.00053 0.012199 -0.064706
			CHANNELS 3 Xrotation Yrotation Zrotation
			Joint Middle_Proximal
			{
				OFFSET 0.00053 0.002961 -0.064706
				CHANNELS 3 Xrotation Yrotation Zrotation
				Joint Middle_Intermediate
				{
					OFFSET -0.000036 -0.01298 -0.061775
					CHANNELS 3 Xrotation Yrotation Zrotation
					Joint Middle_Distal
					{
						OFFSET 0.000274 -0.015333 -0.053566
						CHANNELS 3 Xrotation Yrotation Zrotation
						Joint Middle_Tip
						{
							OFFSET -0.000548 -0.007813 -0.02408
							CHANNELS 3 Xrotation Yrotation Zrotation
							End Site
							{
								OFFSET 0.001 0.001 0.001
							}
						}
					}
				}
			}
		}
	}
	Joint Index_Metacarpal
	{
		OFFSET 0.015899 0.00425 -0.023128
		CHANNELS 3 Xrotation Yrotation Zrotation
		Joint Index_Proximal
		{
			OFFSET 0.015536 0.014243 -0.130857
			CHANNELS 3 Xrotation Yrotation Zrotation
			Joint Index_Intermediate
			{
				OFFSET 0.010432 -0.007019 -0.058063
				CHANNELS 3 Xrotation Yrotation Zrotation
				Joint Index_Distal
				{
					OFFSET 0.008816 -0.004391 -0.036962
					CHANNELS 3 Xrotation Yrotation Zrotation
					Joint Index_Tip
					{
						OFFSET 0.005635 -0.01015 -0.025037
						CHANNELS 3 Xrotation Yrotation Zrotation
						End Site
						{
							OFFSET 0.001 0.001 0.001
						}
					}
				}
			}
		}
	}
	Joint Thumb_Metacarpal
	{
		OFFSET 0.029443 -0.001235 -0.02009
		CHANNELS 3 Xrotation Yrotation Zrotation
		Joint Thumb_Proximal
		{
			OFFSET 0.045426 -0.009009 -0.055883
			CHANNELS 3 Xrotation Yrotation Zrotation
			Joint Thumb_Distal
			{
				OFFSET 0.036738 -0.017865 -0.036781
				CHANNELS 3 Xrotation Yrotation Zrotation
				Joint Thumb_Tip
				{
					OFFSET 0.021267 -0.018606 -0.029161
					CHANNELS 3 Xrotation Yrotation Zrotation
					End Site
					{
						OFFSET 0.001 0.001 0.001
					}
				}
			}
		}
	}
}
MOTION
Frames: 6
Frame Time: 1
0.00 0.00 0.00 0.00 0.00 0.00 0.00 0.00 0.00 0.00 0.00 0.00 0.00 0.00 0.00 0.00 0.00 0.00 0.00 0.00 0.00 0.00 0.00 0.00 0.00 0.00 0.00 0.00 0.00 0.00 0.00 0.00 0.00 0.00 0.00 0.00 0.00 0.00 0.00 0.00 0.00 0.00 0.00 0.00 0.00 0.00 0.00 0.00 0.00 0.00 0.00 0.00 0.00 0.00 0.00 0.00 0.00 0.00 0.00 0.00 0.00 0.00 0.00 0.00 0.00 0.00 0.00 0.00 0.00 0.00 0.00 0.00 0.00 0.00 0.00 0.00 0.00 0.00 0.00 0.00 0.00 
-0.00488 -0.05724 0.7018 22.167722 -15.025525 -163.583468 0.00 0.00 0.00 -4.717309 0.215657 -5.232121 -22.951032 -0.703553 3.464679 9.150661 0.205715 2.570284 0.00 0.00 0.00 0.00 0.00 0.00 -7.436485 0.58466 -8.978151 -22.433119 -2.016792 10.144538 4.441497 -0.005722 -0.147574 0.00 0.00 0.00 0.00 0.00 0.00 0.00 0.00 0.00 -7.213255 -0.228591 3.625455 -29.734375 -1.698669 6.392693 -0.169133 0.00373 -2.528724 0.00 0.00 0.00 0.00 0.00 0.00 0.593762 0.074243 14.254401 -7.251808 -0.14864 2.345314 17.449474 0.092073 0.599959 0.00 0.00 0.00 -9.48312 -1.587452 18.96478 7.970021 2.144411 30.075693 16.824493 -1.41648 -9.556514 0.00 0.00 0.00 
0.001013 -0.1528 0.4608 77.108137 -116.973109 -133.942619 0.00 0.00 0.00 -36.014556 -6.179394 12.341844 -59.203629 -3.673079 7.75863 -27.149059 -0.331969 5.835824 0.00 0.00 0.00 0.00 0.00 0.00 -21.720364 -3.748137 7.985201 -53.792429 -5.042472 14.862724 -27.3332 -0.414749 1.834726 0.00 0.00 0.00 0.00 0.00 0.00 0.00 0.00 0.00 -7.609999 -1.360662 12.384562 -38.937522 -1.629792 6.270977 -11.82896 0.154984 -3.968369 0.00 0.00 0.00 0.00 0.00 0.00 0.031768 0.089321 17.0166 -21.131022 -0.395098 3.343223 9.795503 0.640679 2.923774 0.00 0.00 0.00 -11.716987 -0.923593 15.357757 17.917871 1.679602 28.008663 6.319041 -1.172846 -8.347114 0.00 0.00 0.00 
-0.05453 -0.002965 0.6191 63.310342 5.123581 -105.095595 0.00 0.00 0.00 -60.431622 -31.064387 44.599124 -78.215782 -42.799342 48.986175 -42.059441 -1.608112 8.063715 0.00 0.00 0.00 0.00 0.00 0.00 -51.826676 -13.011463 22.876062 -72.54697 -34.462006 47.235256 -54.318582 -6.308174 10.591286 0.00 0.00 0.00 0.00 0.00 0.00 0.00 0.00 0.00 -16.319062 -0.601426 8.733911 -77.410256 -8.95808 14.411863 -64.172981 0.51121 -4.487604 0.00 0.00 0.00 0.00 0.00 0.00 -34.234636 -1.928061 23.566077 -88.563866 47.031228 -44.812383 -36.477035 2.082286 -2.817123 0.00 0.00 0.00 -6.229629 -1.503805 19.072161 9.5453 2.742859 32.473841 -0.24256 -1.953054 -22.963625 0.00 0.00 0.00 
0.0964 -0.04101 0.5056 -31.116979 101.640223 157.194837 0.00 0.00 0.00 -74.81626 15.440314 -4.901548 -77.548691 -91.011233 98.167194 -15.021367 -6.417135 17.832198 0.00 0.00 0.00 0.00 0.00 0.00 -74.413996 -1.034846 9.718706 -79.03093 -105.635501 120.01477 -21.492046 -0.649904 1.766815 0.00 0.00 0.00 0.00 0.00 0.00 0.00 0.00 0.00 -70.696378 -11.42847 22.69512 -77.615135 -174.734844 -179.478247 -14.381305 1.326736 -5.656043 0.00 0.00 0.00 0.00 0.00 0.00 -13.767436 1.619622 14.996177 -15.597324 0.796006 2.215313 15.095775 1.61102 -0.530079 0.00 0.00 0.00 -31.317432 -8.604187 40.386523 14.844228 6.38693 49.584103 29.749425 10.650889 22.493316 0.00 0.00 0.00 
0.05551 0.08964 0.6524 -5.110236 66.30469 145.755294 0.00 0.00 0.00 -17.523813 20.011968 -10.461604 -75.431154 127.134778 -119.002536 10.341621 -4.393972 -27.924759 0.00 0.00 0.00 0.00 0.00 0.00 -28.179714 14.855612 -8.962041 -70.539318 146.201784 -130.039084 13.181707 1.603154 -27.280855 0.00 0.00 0.00 0.00 0.00 0.00 0.00 0.00 0.00 -35.20147 3.970538 4.365266 -71.341387 131.175299 -123.716705 9.774241 2.047561 -23.057855 0.00 0.00 0.00 0.00 0.00 0.00 -44.36423 -1.700838 21.583389 -70.789057 94.539893 -106.018019 21.334367 1.818416 0.132404 0.00 0.00 0.00 -35.718522 15.265568 -1.476647 12.148811 2.664953 33.736989 22.551022 -7.156514 -16.572242 0.00 0.00 0.00 
